<?xml version="1.0" encoding="utf-8"?>
<!-- Generator: Adobe Illustrator 24.3.0, SVG Export Plug-In . SVG Version: 6.00 Build 0)  -->
<svg version="1.1" id="Layer_1" xmlns="http://www.w3.org/2000/svg" xmlns:xlink="http://www.w3.org/1999/xlink" x="0px" y="0px"
	 viewBox="0 0 400 400" enable-background="new 0 0 400 400" xml:space="preserve">
<g>
	<g>
		<g>
			
				<rect x="269.716" y="262.501" transform="matrix(0.7071 -0.7071 0.7071 0.7071 -119.53 288.64)" fill="#FF7D5F" width="37.855" height="52.199"/>
		</g>
		<g>
			
				<rect x="273.361" y="271.3" transform="matrix(0.7071 -0.7071 0.7071 0.7071 -128.3292 284.9931)" fill="#FF9D8D" width="12.968" height="52.199"/>
		</g>
		<g>
			<path fill="#F4F4F4" d="M292.156,185.879c0-58.717-47.599-106.319-106.318-106.319c-58.721,0-106.32,47.602-106.32,106.319
				c0,58.719,47.599,106.321,106.32,106.321c25.961,0,49.738-9.317,68.201-24.775l9.436,9.436l13.432-13.432l-9.441-9.441
				C282.874,235.539,292.156,211.796,292.156,185.879z M185.838,275.74c-49.628,0-89.86-40.232-89.86-89.859
				c0-49.626,40.232-89.859,89.86-89.859c49.626,0,89.858,40.233,89.858,89.859C275.695,235.508,235.464,275.74,185.838,275.74z"/>
		</g>
		<g>
			<path fill="#F9F9F9" d="M92.441,185.879c0-56.545,44.149-102.762,99.857-106.105c-2.139-0.129-4.289-0.214-6.461-0.214
				c-58.721,0-106.32,47.602-106.32,106.319c0,58.719,47.599,106.321,106.32,106.321c2.163,0,4.304-0.089,6.434-0.216
				C136.576,288.629,92.441,242.418,92.441,185.879z"/>
		</g>
		<g>
			<path fill="#FF7D5F" d="M209.488,122.913c0,4.728-3.831,8.559-8.561,8.559c-4.727,0-8.558-3.831-8.558-8.559
				c0-4.727,3.831-8.558,8.558-8.558C205.657,114.355,209.488,118.186,209.488,122.913z"/>
		</g>
		<g>
			<path fill="#FF9D8D" d="M200.927,122.913c0-3.159,1.731-5.889,4.281-7.372c-1.264-0.734-2.712-1.186-4.281-1.186
				c-4.727,0-8.558,3.831-8.558,8.558c0,4.728,3.831,8.559,8.558,8.559c1.569,0,3.016-0.452,4.281-1.186
				C202.659,128.804,200.927,126.074,200.927,122.913z"/>
		</g>
		<g>
			<path fill="#FF7D5F" d="M217.249,241.09c0,6.871-5.571,12.44-12.443,12.44c-6.868,0-12.437-5.568-12.437-12.44
				c0-6.868,5.568-12.435,12.437-12.435C211.677,228.655,217.249,234.222,217.249,241.09z"/>
		</g>
		<g>
			<path fill="#9AE8CE" d="M192.056,144.382c-26.288,0-47.599,21.353-47.599,47.698c0,26.343,21.311,47.698,47.599,47.698
				c0.151,0,0.298-0.022,0.452-0.024c0.671-6.23,5.885-11.1,12.298-11.1c4.186,0,7.873,2.082,10.127,5.252
				c14.732-8.109,24.72-23.795,24.72-41.827C239.653,165.735,218.342,144.382,192.056,144.382z"/>
		</g>
		<g>
			<path fill="#AEF4DB" d="M155.284,192.08c0-24.507,18.451-44.671,42.184-47.368c-1.778-0.201-3.58-0.329-5.412-0.329
				c-26.288,0-47.599,21.353-47.599,47.698c0,26.343,21.311,47.698,47.599,47.698c0.151,0,0.298-0.022,0.452-0.024
				c0.041-0.375,0.148-0.727,0.222-1.09C171.325,233.999,155.284,214.927,155.284,192.08z"/>
		</g>
		<g>
			<path fill="#FF7D5F" d="M236.607,131.473c0,3.679-2.984,6.66-6.661,6.66c-3.678,0-6.664-2.98-6.664-6.66
				c0-3.679,2.987-6.662,6.664-6.662C233.623,124.811,236.607,127.793,236.607,131.473z"/>
		</g>
		<g>
			<path fill="#FF9D8D" d="M229.946,131.473c0-2.459,1.35-4.583,3.332-5.737c-0.984-0.573-2.112-0.925-3.332-0.925
				c-3.678,0-6.664,2.982-6.664,6.662c0,3.679,2.987,6.66,6.664,6.66c1.22,0,2.349-0.352,3.332-0.924
				C231.296,136.054,229.946,133.932,229.946,131.473z"/>
		</g>
		<g>
			<path fill="#FF7D5F" d="M160.504,246.868c0,3.678-2.987,6.662-6.664,6.662s-6.661-2.984-6.661-6.662
				c0-3.679,2.984-6.66,6.661-6.66S160.504,243.189,160.504,246.868z"/>
		</g>
		<g>
			<path fill="#FF7D5F" d="M184.349,178.459c0,3.681-2.984,6.662-6.661,6.662s-6.661-2.981-6.661-6.662
				c0-3.678,2.984-6.66,6.661-6.66S184.349,174.781,184.349,178.459z"/>
		</g>
		<g>
			<path fill="#FF9D8D" d="M175.242,178.459c0-2.936,1.914-5.401,4.555-6.286c-0.668-0.225-1.368-0.374-2.109-0.374
				c-3.678,0-6.661,2.982-6.661,6.66c0,3.681,2.984,6.662,6.661,6.662c0.741,0,1.442-0.149,2.109-0.372
				C177.156,183.862,175.242,181.398,175.242,178.459z"/>
		</g>
		<g>
			<g>
				<path fill="#9AE8CE" d="M136.522,235.196c-1.43,0-2.836-0.673-3.719-1.933c-8.511-12.147-13.01-26.388-13.01-41.183
					c0-33.657,23.863-63.212,56.742-70.273c2.452-0.521,4.865,1.034,5.391,3.484c0.526,2.451-1.034,4.863-3.483,5.39
					c-28.726,6.168-49.576,31.99-49.576,61.399c0,12.923,3.932,25.363,11.367,35.975c1.439,2.053,0.94,4.882-1.113,6.32
					C138.33,234.931,137.424,235.196,136.522,235.196z"/>
			</g>
		</g>
		<g>
			<path fill="#AEF4DB" d="M137.341,233.263c-8.511-12.147-13.01-26.388-13.01-41.183c0-33.12,23.127-62.216,55.194-69.868
				c-0.895-0.451-1.935-0.629-2.99-0.405c-32.879,7.062-56.742,36.616-56.742,70.273c0,14.796,4.499,29.036,13.01,41.183
				c0.883,1.26,2.289,1.933,3.719,1.933c0.774,0,1.539-0.239,2.245-0.647C138.224,234.23,137.728,233.814,137.341,233.263z"/>
		</g>
		<g>
			<path fill="#FF9D8D" d="M153.842,246.869c0-2.459,1.35-4.583,3.332-5.737c-0.984-0.573-2.112-0.925-3.332-0.925
				c-3.678,0-6.664,2.982-6.664,6.661c0,3.679,2.987,6.66,6.664,6.66c1.22,0,2.349-0.352,3.332-0.925
				C155.192,251.451,153.842,249.329,153.842,246.869z"/>
		</g>
		<g>
			<path fill="#FF9D8D" d="M200.05,241.09c0-5.506,3.604-10.122,8.561-11.759c-1.226-0.403-2.514-0.676-3.876-0.676
				c-6.868,0-12.437,5.567-12.437,12.435c0,6.871,5.568,12.44,12.437,12.44c1.362,0,2.65-0.273,3.876-0.678
				C203.654,251.216,200.05,246.599,200.05,241.09z"/>
		</g>
	</g>
	<g>
		<g>
			<path fill="#161616" d="M293.716,324.977c-1.202,0-2.357-0.479-3.208-1.329l-36.911-36.91c-0.851-0.851-1.329-2.004-1.329-3.208
				s0.479-2.357,1.329-3.208l26.767-26.767c1.772-1.772,4.644-1.772,6.416,0l36.911,36.908c0.851,0.851,1.329,2.004,1.329,3.208
				s-0.479,2.357-1.329,3.208l-26.767,26.768C296.073,324.499,294.918,324.977,293.716,324.977z M263.22,283.53l30.495,30.494
				l20.351-20.352l-30.495-30.492L263.22,283.53z"/>
		</g>
		<g>
			<path fill="#161616" d="M185.838,296.738c-26.469,0-52.107-9.506-72.192-26.766c-1.899-1.634-2.118-4.498-0.484-6.398
				c1.636-1.9,4.499-2.115,6.398-0.484c18.44,15.847,41.978,24.574,66.278,24.574c23.834,0,47.02-8.422,65.288-23.716
				c1.799-1.508,4.461-1.393,6.121,0.27l6.227,6.227l7.016-7.016l-6.233-6.233c-1.66-1.66-1.781-4.314-0.275-6.116
				c15.243-18.249,23.636-41.403,23.636-65.2c0-56.123-45.658-101.782-101.78-101.782c-56.125,0-101.783,45.658-101.783,101.782
				c0,22.504,7.211,43.842,20.856,61.704c1.521,1.993,1.14,4.84-0.854,6.36c-1.991,1.52-4.836,1.137-6.36-0.851
				c-14.862-19.459-22.717-42.7-22.717-67.213c0-61.126,49.732-110.857,110.858-110.857s110.855,49.731,110.855,110.857
				c0,24.529-8.192,48.435-23.142,67.777l6.564,6.564c1.773,1.771,1.773,4.645,0,6.416l-13.432,13.432
				c-1.772,1.772-4.644,1.772-6.416,0l-6.555-6.554C234.347,288.519,210.41,296.738,185.838,296.738z M185.838,280.277
				c-52.051,0-94.398-42.346-94.398-94.397c0-52.051,42.347-94.396,94.398-94.396c52.048,0,94.395,42.345,94.395,94.396
				C280.233,237.932,237.886,280.277,185.838,280.277z M185.838,100.559c-47.047,0-85.323,38.275-85.323,85.321
				c0,47.047,38.276,85.322,85.323,85.322s85.32-38.275,85.32-85.322C271.158,138.834,232.885,100.559,185.838,100.559z"/>
		</g>
		<g>
			<path fill="#161616" d="M200.928,136.01c-7.22,0-13.096-5.876-13.096-13.097c0-7.221,5.876-13.095,13.096-13.095
				c7.223,0,13.098,5.874,13.098,13.095C214.026,130.134,208.15,136.01,200.928,136.01z M200.928,118.893
				c-2.216,0-4.021,1.803-4.021,4.021c0,2.217,1.805,4.022,4.021,4.022c2.219,0,4.023-1.805,4.023-4.022
				C204.951,120.696,203.146,118.893,200.928,118.893z"/>
		</g>
		<g>
			<path fill="#161616" d="M204.806,258.067c-9.358,0-16.974-7.616-16.974-16.977c0-9.359,7.616-16.973,16.974-16.973
				c9.362,0,16.98,7.614,16.98,16.973C221.786,250.451,214.168,258.067,204.806,258.067z M204.806,233.192
				c-4.354,0-7.899,3.543-7.899,7.898c0,4.357,3.545,7.902,7.899,7.902c4.36,0,7.905-3.545,7.905-7.902
				C212.711,236.736,209.166,233.192,204.806,233.192z"/>
		</g>
		<g>
			<path fill="#161616" d="M192.056,244.316c-28.749,0-52.137-23.433-52.137-52.236c0-28.802,23.388-52.236,52.137-52.236
				c24.185,0,45.014,16.468,50.654,40.047c0.582,2.437-0.922,4.885-3.359,5.468c-2.44,0.583-4.883-0.922-5.468-3.359
				c-4.659-19.478-21.857-33.081-41.827-33.081c-23.745,0-43.062,19.361-43.062,43.161c0,22.758,17.665,41.461,39.975,43.051
				c2.417-6.499,8.632-11.014,15.837-11.014c4.029,0,7.893,1.452,10.924,4.01c9.084-6.01,15.63-15.304,18.177-25.968
				c0.579-2.436,3.028-3.941,5.468-3.359c2.437,0.582,3.941,3.029,3.359,5.468c-3.412,14.28-12.747,26.531-25.612,33.613
				c-2.024,1.112-4.552,0.533-5.888-1.346c-1.489-2.094-3.89-3.344-6.428-3.344c-4.006,0-7.353,3.029-7.787,7.049
				c-0.245,2.288-2.165,4.029-4.467,4.051C192.44,244.305,192.248,244.316,192.056,244.316z"/>
		</g>
		<g>
			<path fill="#161616" d="M229.946,142.67c-6.177,0-11.202-5.023-11.202-11.197c0-6.176,5.025-11.199,11.202-11.199
				c6.174,0,11.199,5.023,11.199,11.199C241.145,137.647,236.12,142.67,229.946,142.67z M229.946,129.349
				c-1.173,0-2.127,0.953-2.127,2.124c0,1.17,0.954,2.123,2.127,2.123c1.17,0,2.124-0.953,2.124-2.123
				C232.07,130.301,231.115,129.349,229.946,129.349z"/>
		</g>
		<g>
			<path fill="#161616" d="M153.839,258.067c-6.174,0-11.199-5.023-11.199-11.199c0-6.174,5.025-11.197,11.199-11.197
				c6.177,0,11.202,5.023,11.202,11.197C165.041,253.044,160.016,258.067,153.839,258.067z M153.839,244.746
				c-1.17,0-2.124,0.953-2.124,2.122c0,1.171,0.954,2.124,2.124,2.124c1.173,0,2.127-0.953,2.127-2.124
				C155.966,245.698,155.012,244.746,153.839,244.746z"/>
		</g>
		<g>
			<path fill="#161616" d="M177.688,189.658c-6.174,0-11.199-5.023-11.199-11.199c0-6.174,5.025-11.197,11.199-11.197
				c6.174,0,11.199,5.023,11.199,11.197C188.887,184.634,183.862,189.658,177.688,189.658z M177.688,176.336
				c-1.17,0-2.124,0.953-2.124,2.122c0,1.171,0.954,2.124,2.124,2.124c1.17,0,2.124-0.953,2.124-2.124
				C179.812,177.289,178.858,176.336,177.688,176.336z"/>
		</g>
		<g>
			<g>
				<path fill="#161616" d="M136.522,235.196c-1.43,0-2.836-0.673-3.719-1.933c-8.511-12.147-13.01-26.388-13.01-41.183
					c0-33.657,23.863-63.212,56.742-70.273c2.458-0.521,4.863,1.034,5.391,3.484c0.526,2.451-1.034,4.863-3.483,5.39
					c-28.726,6.168-49.576,31.99-49.576,61.399c0,12.923,3.932,25.363,11.367,35.975c1.439,2.053,0.94,4.882-1.113,6.32
					C138.33,234.931,137.424,235.196,136.522,235.196z"/>
			</g>
		</g>
	</g>
</g>
</svg>
